<?xml version="1.0" encoding="utf-8"?>
<!-- Generator: Adobe Illustrator 13.0.0, SVG Export Plug-In . SVG Version: 6.00 Build 14948)  -->
<!DOCTYPE svg PUBLIC "-//W3C//DTD SVG 1.1//EN" "http://www.w3.org/Graphics/SVG/1.1/DTD/svg11.dtd">
<svg version="1.1" id="Layer_1" xmlns="http://www.w3.org/2000/svg" xmlns:xlink="http://www.w3.org/1999/xlink" x="0px" y="0px"
	 width="141.799px" height="141.8px" viewBox="-41.928 3.029 141.799 141.8" enable-background="new -41.928 3.029 141.799 141.8"
	 xml:space="preserve">
<circle cx="28.972" cy="73.929" r="70.899"/>
<g>
	<polyline fill="#1B75BC" points="23.572,45.237 23.548,68.252 0.532,68.228 	"/>
	
		<rect x="-24.308" y="37.19" transform="matrix(-0.7063 -0.7079 0.7079 -0.7063 -34.3599 68.7832)" fill="#1B75BC" width="42.79" height="8.657"/>
</g>
<g>
	<polyline fill="#1B75BC" points="0.564,78.956 23.578,78.981 23.554,101.996 	"/>
	
		<rect x="-24.551" y="101.113" transform="matrix(-0.7079 0.7063 -0.7063 -0.7079 69.0876 182.3102)" fill="#1B75BC" width="42.791" height="8.658"/>
</g>
<g>
	<polyline fill="#1B75BC" points="34.828,102.551 34.854,79.537 57.868,79.561 	"/>
	
		<rect x="39.918" y="101.941" transform="matrix(0.7063 0.7079 -0.7079 0.7063 93.2326 -12.1946)" fill="#1B75BC" width="42.791" height="8.657"/>
</g>
<g>
	<polyline fill="#1B75BC" points="57.564,68.023 34.549,67.999 34.573,44.983 	"/>
	
		<rect x="39.887" y="37.209" transform="matrix(0.7079 -0.7063 0.7063 0.7079 -11.4379 55.4197)" fill="#1B75BC" width="42.791" height="8.658"/>
</g>
</svg>
